<svg xmlns="http://www.w3.org/2000/svg" width="82" height="82" viewBox="0 0 82 82">
  <g id="Group_9138" data-name="Group 9138" transform="translate(-1680 -1408)">
    <rect id="Rectangle_1829" data-name="Rectangle 1829" width="82" height="82" rx="16" transform="translate(1680 1408)" fill="#0b69e5" opacity="0.16"/>
    <g id="svgexport-6_1_" data-name="svgexport-6 (1)" transform="translate(1690.657 1418.76)">
      <g id="Group_9137" data-name="Group 9137" transform="translate(5.343 1.24)">
        <path id="Path_11656" data-name="Path 11656" d="M54.487,9.724a2.466,2.466,0,0,0-1.645-4.2l-1.175-.044a.72.72,0,0,1-.687-.7l-.052-1.175a2.456,2.456,0,0,0-4.194-1.645L42.671,6.026a2.445,2.445,0,0,0-.713,1.549,23.6,23.6,0,0,0-28.931,37.11l-2.75,6.656a5,5,0,1,0,9.25,3.811l.592-1.427a.87.87,0,0,0-1.61-.661l-.592,1.427A3.262,3.262,0,1,1,11.887,52l2.532-6.143a23.386,23.386,0,0,0,5.7,3.306L19.483,50.7a.872.872,0,1,0,1.61.67l.661-1.61a23.453,23.453,0,0,0,7.2,1.122,23.21,23.21,0,0,0,7.283-1.157l.626,1.505a.87.87,0,0,0,1.61-.661l-.6-1.444a22.873,22.873,0,0,0,5.691-3.333L46.117,52a3.262,3.262,0,1,1-6.03,2.489l-.766-1.845a.87.87,0,1,0-1.61.661l.766,1.845a5,5,0,1,0,9.249-3.811l-2.776-6.726a23.575,23.575,0,0,0,7.6-17.333.87.87,0,1,0-1.74,0,21.87,21.87,0,1,1-8.78-17.524l.087,2.219a2.309,2.309,0,0,0,.218.914h0l-2.285,2.285a16.4,16.4,0,0,0-24.676,2.812h0q-.271.4-.52.809a.87.87,0,0,0,1.49.9q.222-.37.466-.725h0a14.666,14.666,0,0,1,22.01-2.566L34.71,20.514a8.889,8.889,0,1,0-5.764,15.652.87.87,0,1,0,0-1.74,7.153,7.153,0,1,1,4.532-12.68l-4.912,4.912a.87.87,0,1,0,1.23,1.23l4.878-4.878a7.137,7.137,0,0,1-2.908,10.839.87.87,0,0,0,.687,1.6,8.879,8.879,0,0,0,3.463-13.679l4.12-4.12a14.69,14.69,0,1,1-24.981,4.784.87.87,0,1,0-1.643-.573,16.454,16.454,0,1,0,27.854-5.441l2.292-2.292a2.473,2.473,0,0,0,.913.217l2.167.078a21.891,21.891,0,0,1,3.454,7.3.873.873,0,0,0,1.688-.444A23.414,23.414,0,0,0,48.8,14.5a2.517,2.517,0,0,0,1.627-.713Zm-5.8,3.037s-4.14-.157-4.14-.157a.719.719,0,0,1-.689-.687c-.061-1.512-.077-1.931-.165-4.124a.707.707,0,0,1,.209-.531L47.961,3.2a.72.72,0,0,1,1.235.479l.044,1.175A2.47,2.47,0,0,0,51.6,7.218l1.175.044a.723.723,0,0,1,.487,1.227L49.2,12.551a.738.738,0,0,1-.513.209Z" transform="translate(-5.343 -1.24)" fill="#0b69e5"/>
      </g>
    </g>
  </g>
</svg>
