<svg xmlns="http://www.w3.org/2000/svg" width="82" height="82" viewBox="0 0 82 82">
  <g id="Group_9139" data-name="Group 9139" transform="translate(-1680 -1123)">
    <rect id="Rectangle_1786" data-name="Rectangle 1786" width="82" height="82" rx="16" transform="translate(1680 1123)" fill="#e5210b" opacity="0.16"/>
    <g id="svgexport-6" transform="translate(1690 1132.216)">
      <g id="Group_9136" data-name="Group 9136" transform="translate(1 6.784)">
        <path id="Path_11648" data-name="Path 11648" d="M60.654,31.393c-.542-.561-13.462-13.748-29.7-13.748S1.8,30.832,1.255,31.393a.908.908,0,0,0,0,1.261c.542.561,13.461,13.738,29.7,13.738.012,0,.021-.006.032-.007A14.384,14.384,0,0,0,45.331,32.018a14.228,14.228,0,0,0-3.055-8.858.908.908,0,1,0-1.429,1.12,12.429,12.429,0,0,1,2.668,7.739A12.548,12.548,0,1,1,37.48,21.287a.907.907,0,0,0,1.247-.3.882.882,0,0,0,.118-.438c9.879,2.646,17.623,9.383,19.853,11.478A51.691,51.691,0,0,1,41.445,42.707a.908.908,0,0,0,.6,1.715A52.587,52.587,0,0,0,60.654,32.655a.908.908,0,0,0,0-1.261Zm-44.076.625a14.337,14.337,0,0,0,5.313,11.138c-9.315-2.839-16.539-9.122-18.68-11.134,2.139-2.013,9.359-8.3,18.682-11.144A14.337,14.337,0,0,0,16.578,32.018Z" transform="translate(-1 -7.478)" fill="#e5210b"/>
        <path id="Path_11649" data-name="Path 11649" d="M32.533,37.582a5.071,5.071,0,0,1-4.605-2.964.908.908,0,1,0-1.652.752,6.869,6.869,0,1,0,7.369-9.609l-.032-.006a6.305,6.305,0,0,0-1.08-.091,6.862,6.862,0,0,0-6.839,6.149.906.906,0,0,0,.526.921,5.764,5.764,0,0,0,2.41.518,5.831,5.831,0,0,0,5.812-5.394,5.048,5.048,0,0,1-1.909,9.724Zm-3.9-6.145a4.069,4.069,0,0,1-1.009-.125,5.064,5.064,0,0,1,5.021-3.831,4.013,4.013,0,0,1-4.012,3.956Z" transform="translate(-2.578 -7.991)" fill="#e5210b"/>
        <path id="Path_11650" data-name="Path 11650" d="M32.938,12.708a.907.907,0,0,0,.908-.908V7.691a.908.908,0,1,0-1.815,0V11.8A.907.907,0,0,0,32.938,12.708Z" transform="translate(-2.984 -6.784)" fill="#e5210b"/>
        <path id="Path_11651" data-name="Path 11651" d="M21.583,15.086a.908.908,0,0,0,1.573-.908L21.1,10.62a.908.908,0,0,0-1.573.908Z" transform="translate(-2.177 -7)" fill="#e5210b"/>
        <path id="Path_11652" data-name="Path 11652" d="M22.823,50.215a.907.907,0,0,0-1.24.332l-2.054,3.558a.908.908,0,0,0,1.573.908l2.054-3.558A.908.908,0,0,0,22.823,50.215Z" transform="translate(-2.177 -9.552)" fill="#e5210b"/>
        <path id="Path_11653" data-name="Path 11653" d="M32.938,52.887a.907.907,0,0,0-.908.908V57.9a.908.908,0,1,0,1.815,0V53.795A.907.907,0,0,0,32.938,52.887Z" transform="translate(-2.984 -9.731)" fill="#e5210b"/>
        <path id="Path_11654" data-name="Path 11654" d="M44.153,50.547a.908.908,0,0,0-1.573.908l2.054,3.558a.908.908,0,0,0,1.573-.908Z" transform="translate(-3.65 -9.552)" fill="#e5210b"/>
        <path id="Path_11655" data-name="Path 11655" d="M42.913,15.418a.908.908,0,0,0,1.24-.332l2.054-3.558a.908.908,0,1,0-1.573-.908l-2.054,3.558a.908.908,0,0,0,.332,1.24Z" transform="translate(-3.65 -7)" fill="#e5210b"/>
      </g>
    </g>
  </g>
</svg>
